<svg width="76" height="26" viewBox="0 0 76 26" fill="none" xmlns="http://www.w3.org/2000/svg">
  <title>Ameba</title>
  <path fill-rule="evenodd" clip-rule="evenodd" d="M19.8278 20.0836C19.5764 19.4475 19.1342 19.1455 18.3035 18.5782L18.27 18.5553C17.6332 18.1186 17.1923 17.5259 17.1139 16.3199C17.0668 15.5637 17.1173 14.9474 17.1736 14.2607C17.2342 13.5217 17.3015 12.7013 17.2609 11.5372C17.2021 9.8113 16.6143 8.50126 16.2518 7.73188C15.8207 6.83773 15.7423 6.19311 15.7129 5.1534C15.6968 4.63321 15.7014 3.76103 15.7055 2.97229V2.97225V2.97221V2.97218C15.7089 2.32636 15.712 1.7365 15.7031 1.44163C15.6835 0.786614 15.4288 0.360333 15.0075 0.141994C14.4883 -0.117934 13.9396 -0.0347568 13.4694 0.505892C13.0383 1.00495 12.2643 1.87831 11.7353 2.39816C11.0397 3.07398 10.589 3.22993 9.97177 3.22993C9.35454 3.22993 8.91366 3.08437 8.20826 2.39816C7.67921 1.88871 6.89544 1.00495 6.47415 0.505892C6.00389 -0.0243597 5.45524 -0.107537 4.93599 0.141994C4.50491 0.349936 4.25998 0.776217 4.23059 1.44163C4.22176 1.74137 4.22486 2.33436 4.22825 2.98206V2.98207V2.98209V2.9821V2.98216C4.23239 3.77231 4.23694 4.64387 4.22079 5.16379C4.1914 6.2035 4.11302 6.83773 3.68195 7.74227C3.31945 8.51166 2.73161 9.8113 2.67283 11.5476C2.6322 12.7117 2.6995 13.5321 2.76011 14.2711C2.81643 14.9578 2.86698 15.5741 2.81979 16.3303C2.74141 17.5363 2.30054 18.129 1.66372 18.5657L1.57972 18.6237C0.79031 19.1686 0.352088 19.4712 0.105956 20.094C-0.0703941 20.5515 -0.070394 21.2065 0.448859 21.4872C0.781965 21.664 1.18365 21.6328 1.59513 21.456C1.67689 21.4219 1.75802 21.383 1.83868 21.3444L1.83872 21.3444L1.83876 21.3444L1.8388 21.3444C2.07708 21.2303 2.31127 21.1182 2.54547 21.1337C2.7904 21.1441 2.98634 21.2897 3.01573 21.7056C3.05492 22.1423 3.24107 22.319 3.54478 22.319C3.78971 22.319 4.01505 22.1423 4.1914 21.664C4.22432 21.5739 4.25417 21.4858 4.28265 21.4017L4.28269 21.4016L4.28274 21.4014L4.28275 21.4014C4.41522 21.0102 4.51776 20.7075 4.75964 20.7075C5.07315 20.7179 5.14173 21.0714 5.16133 21.5704C5.19072 22.2878 4.93599 22.8389 4.43633 23.3275C3.8583 23.889 3.42722 24.4192 3.58397 25.1158C3.69174 25.6045 4.2012 25.9268 5.00457 25.9684C5.82754 25.9996 7.15996 26.01 8.0809 25.9892C8.94306 25.9684 9.44271 25.5733 9.54069 25.043C9.60285 24.7297 9.54176 24.521 9.48341 24.3216C9.4314 24.144 9.38157 23.9737 9.42312 23.7434C9.47211 23.4731 9.70724 23.3587 9.96197 23.3587C10.2167 23.3587 10.4616 23.4731 10.5008 23.7434C10.537 23.9691 10.4875 24.1371 10.4363 24.311C10.3767 24.5136 10.3147 24.7241 10.3832 25.043C10.491 25.5629 10.9809 25.958 11.843 25.9892C12.764 26.01 14.0964 25.9996 14.9096 25.958C15.7129 25.9164 16.2224 25.5941 16.3302 25.1054C16.4869 24.4088 16.0558 23.889 15.4778 23.3171C14.9781 22.8285 14.7234 22.2774 14.7528 21.56C14.7724 21.061 14.8508 20.7075 15.1545 20.6971C15.3983 20.6884 15.5006 20.9946 15.6346 21.396L15.6346 21.3961L15.6347 21.3962L15.6347 21.3964C15.6622 21.4787 15.6911 21.5651 15.7227 21.6536C15.8991 22.1319 16.1244 22.3086 16.3694 22.3086C16.6731 22.3086 16.8592 22.1215 16.8984 21.6952C16.9376 21.2689 17.1335 21.1337 17.3687 21.1233C17.6029 21.1078 17.8371 21.2199 18.0753 21.334C18.156 21.3726 18.2372 21.4115 18.319 21.4457C18.7403 21.6224 19.1322 21.6536 19.4653 21.4768C20.0041 21.1961 20.0041 20.5411 19.8278 20.0836ZM6.21952 9.08352C6.59182 9.08352 6.88573 8.76121 6.88573 8.37651C6.88573 7.98142 6.58202 7.66951 6.21952 7.66951C5.84723 7.66951 5.55331 7.99182 5.55331 8.37651C5.54351 8.76121 5.84723 9.08352 6.21952 9.08352ZM14.3906 8.37651C14.3906 8.76121 14.0966 9.08352 13.7243 9.08352C13.352 9.08352 13.0483 8.76121 13.0581 8.37651C13.0581 7.99182 13.352 7.66951 13.7243 7.66951C14.0868 7.66951 14.3906 7.98142 14.3906 8.37651ZM9.96213 9.02112C11.5297 9.02112 12.6564 9.39541 13.7341 10.3727C14.4787 11.0486 14.9685 12.3898 14.3807 13.3879C14.0966 13.8974 13.5479 14.3028 12.8915 14.3652C12.0195 14.4484 11.4807 14.1157 11.1378 13.7102C10.8047 13.3255 10.452 12.9616 9.95233 12.9616C9.45267 12.9616 9.09997 13.3255 8.76687 13.7102C8.42396 14.1157 7.87532 14.4484 7.01316 14.3652C6.36654 14.3028 5.8081 13.8974 5.52398 13.3879C4.96554 12.3794 5.4456 11.0382 6.19019 10.3727C7.27769 9.39541 8.39457 9.02112 9.96213 9.02112ZM8.42382 10.6327C8.42382 9.92569 9.09983 9.37464 9.97178 9.37464C10.8437 9.37464 11.5197 9.92569 11.5197 10.6327C11.5197 11.3397 10.8437 11.8907 9.97178 11.8907C9.09983 11.8907 8.42382 11.3397 8.42382 10.6327ZM6.86628 19.1167C6.86628 17.2972 8.25748 15.8208 9.972 15.8208C11.6767 15.8208 13.0777 17.2972 13.0777 19.1167C13.0777 20.9362 11.6865 22.4126 9.972 22.4126C8.25748 22.4126 6.86628 20.9362 6.86628 19.1167Z" fill="#2C893A"/>
  <path d="M28.2826 6.74414C26.1272 6.74414 24.2168 8.34529 23.7465 10.5391C23.6583 10.955 23.6191 11.558 23.6191 12.4937V19.8757C23.6191 20.5723 24.1482 21.1337 24.8046 21.1337C25.461 21.1337 25.9803 20.5723 25.9803 19.8757V16.9125H30.5948V19.8757C30.5948 20.5723 31.1238 21.1337 31.7704 21.1337C32.4268 21.1337 32.9559 20.5723 32.9559 19.8757V12.4937C32.9559 11.5476 32.9167 10.9446 32.8285 10.5391C32.3485 8.3349 30.438 6.74414 28.2826 6.74414ZM25.9705 14.4068V12.4937C25.9705 11.5164 26.0195 11.1941 26.0391 11.1005C26.2742 10.0296 27.2147 9.24984 28.2728 9.24984C29.3407 9.24984 30.2813 10.0296 30.5066 11.1005C30.5262 11.1941 30.5752 11.5268 30.5752 12.4937V14.4068H25.9705Z" fill="black"/>
  <path d="M66.4031 13.8454C66.3541 11.4748 64.6298 9.63453 62.4254 9.63453C61.7984 9.63453 61.2106 9.79049 60.6815 10.0608V7.92941C60.6815 7.27439 60.1819 6.74414 59.5646 6.74414C58.9474 6.74414 58.4478 7.27439 58.4478 7.92941C58.4478 7.92941 58.4478 15.2282 58.4478 16.0495C58.4478 16.8709 58.4771 17.6299 58.6045 18.1082C59.0846 19.8653 60.6129 21.1441 62.4254 21.1441C64.5612 21.1441 66.3443 19.2622 66.4031 16.9541C66.4325 16.0288 66.4227 14.9059 66.4031 13.8454ZM64.1693 16.8917C64.14 17.9314 63.3562 18.7736 62.4254 18.7736C61.4653 18.7736 60.6913 17.9314 60.6815 16.9229C60.6717 15.9144 60.6717 14.8643 60.6815 13.8662C60.6913 12.868 61.4653 12.0155 62.4254 12.0155C63.3856 12.0155 64.14 12.8368 64.1693 13.8766C64.1889 14.9163 64.1889 16.008 64.1693 16.8917Z" fill="black"/>
  <path d="M43.1251 9.63458C42.2532 9.63458 41.4596 9.99848 40.862 10.5911C40.2643 9.99848 39.4708 9.63458 38.5988 9.63458C37.0508 9.63458 35.7086 10.7887 35.3167 12.4418C35.2188 12.8681 35.2188 13.3567 35.2188 13.783V19.9485C35.2188 20.6035 35.7184 21.1338 36.3356 21.1338C36.9529 21.1338 37.4525 20.6035 37.4525 19.9485V13.7726C37.4525 13.5231 37.4525 13.1488 37.4917 13.0032C37.6289 12.4106 38.0893 11.9947 38.5988 11.9947C39.2258 11.9947 39.7353 12.5874 39.7353 13.3256V19.9381C39.7353 20.5931 40.2349 21.1234 40.8522 21.1234C41.4694 21.1234 41.969 20.5931 41.969 19.9381V13.3256C41.969 12.5874 42.4785 11.9947 43.1153 11.9947C43.6248 11.9947 44.0852 12.4106 44.2224 13.0032C44.2616 13.1488 44.2616 13.5231 44.2518 13.7726V19.9485C44.2518 20.6035 44.7515 21.1338 45.3687 21.1338C45.9859 21.1338 46.4856 20.6035 46.4856 19.9485V13.783C46.4856 13.3567 46.4856 12.8681 46.3876 12.4418C46.0153 10.7887 44.6731 9.63458 43.1251 9.63458Z" fill="black"/>
  <path d="M67.9907 17.4428C67.9907 19.4806 69.7836 21.1442 71.988 21.1442C74.1532 21.1442 75.9461 19.491 75.9852 17.4636C76.0048 16.1016 76.0048 14.7915 75.9852 13.3152C75.9559 11.2149 74.2315 9.63458 71.988 9.63458C69.9992 9.63458 68.7353 10.7991 68.4022 11.163C67.9613 11.6308 67.9613 12.3794 68.4022 12.8369C68.8431 13.3048 69.5485 13.3048 69.9894 12.8369C70.1167 12.7017 70.8319 12.0051 71.9978 12.0051C72.8795 12.0051 73.5751 12.4626 73.7221 13.1072C73.144 13.4191 72.1251 13.6791 71.5765 13.8142C70.685 14.0326 67.9907 14.7188 67.9907 17.4428ZM73.7711 15.6441C73.7809 16.2471 73.7907 16.8398 73.7515 17.4324C73.7123 18.0874 73.0265 18.784 71.988 18.784C71.0377 18.784 70.2245 18.181 70.2245 17.4532C70.2245 17.1517 70.2245 16.6006 72.086 16.1328C72.6836 15.9768 73.2518 15.8209 73.7711 15.6441Z" fill="black"/>
  <path d="M56.7046 13.3359C56.7046 11.2981 54.9117 9.63458 52.7073 9.63458C50.5421 9.63458 48.7492 11.2877 48.71 13.3152C48.6904 14.6772 48.6904 15.9872 48.71 17.4636C48.7394 19.5638 50.4637 21.1442 52.7073 21.1442C54.6961 21.1442 55.96 19.9797 56.2931 19.6158C56.734 19.1479 56.734 18.3993 56.2931 17.9419C55.8522 17.474 55.1468 17.474 54.7157 17.9419C54.5884 18.077 53.8732 18.7736 52.7171 18.7736C51.8353 18.7736 51.1397 18.3162 50.983 17.6715C51.561 17.3596 52.5799 17.0997 53.1286 16.9645C54.0103 16.7462 56.7046 16.0704 56.7046 13.3359ZM50.934 15.145C50.9242 14.542 50.9144 13.9494 50.9536 13.3567C50.9928 12.7121 51.6786 12.0051 52.7171 12.0051C53.6674 12.0051 54.4806 12.6082 54.4806 13.3359C54.4806 13.6375 54.4806 14.1885 52.6191 14.6564C52.0117 14.8123 51.4532 14.9579 50.934 15.145Z" fill="black"/>
</svg>
