<svg width="114px" height="20px" xmlns="http://www.w3.org/2000/svg" viewBox="0 0 114 20">
  <defs>
    <style>.cls-1{fill:#82be28;}.cls-2{fill:#2d8c3c;}</style>
  </defs>
  <title>logo_ca_s</title>
  <path class="cls-1" d="M12,11a1.39,1.39,0,0,0-1.87.16,3.66,3.66,0,0,1-2.95,1A3.17,3.17,0,0,1,4.58,8.85,3.42,3.42,0,0,1,7.34,5.3a3,3,0,0,1,1.87.4,6,6,0,0,1,1.29,1,1.55,1.55,0,0,0,1.91,0A4.92,4.92,0,0,0,14.21,4a1.33,1.33,0,0,0-.82-1.77,8.81,8.81,0,0,1-1.16-.57A8.31,8.31,0,0,0,7.11.13C3.12.25,0,4.18,0,8.94s3.12,8.49,7.11,8.4a8.09,8.09,0,0,0,3.43-.85,11.58,11.58,0,0,1,1.86-.71A1.52,1.52,0,0,0,13.53,14,5.22,5.22,0,0,0,12,11Z"/>
  <path class="cls-2" d="M25.14,15.44a4.76,4.76,0,0,0-.62-1.34,10.54,10.54,0,0,1-.66-1.35,30.74,30.74,0,0,1-1.49-5.11c-.43-1.88-.94-4.46-1.12-5.32A2.5,2.5,0,0,0,20,.44a3.63,3.63,0,0,0-1.39-.2H16.24a3.63,3.63,0,0,0-1.39.2,2.5,2.5,0,0,0-1.26,1.89v0A1.32,1.32,0,0,1,14.21,4a4.92,4.92,0,0,1-1.79,2.69,1.55,1.55,0,0,1-1.91,0,6,6,0,0,0-1.29-1,3,3,0,0,0-1.87-.4A3.42,3.42,0,0,0,4.58,8.85a3.17,3.17,0,0,0,2.65,3.32,3.66,3.66,0,0,0,2.95-1A1.39,1.39,0,0,1,12,11a5.22,5.22,0,0,1,1.49,3,1.52,1.52,0,0,1-1.13,1.79,11.58,11.58,0,0,0-1.86.71l-.09,0a1.73,1.73,0,0,0,1.42.64,21.35,21.35,0,0,0,2.27,0,1.83,1.83,0,0,0,1.77-1,4.28,4.28,0,0,1,.5-1.07,1.15,1.15,0,0,1,1-.45,1.15,1.15,0,0,1,1,.45,4.29,4.29,0,0,1,.5,1.07,1.83,1.83,0,0,0,1.77,1c1.08,0,2.16,0,2.9,0a1.59,1.59,0,0,0,1.12-.38A1.47,1.47,0,0,0,25.14,15.44Zm-7.72-4.25c-1.41,0-1.71-1.43-1.32-2.77.45-1.52.93-1.72,1.32-1.72s.87.19,1.32,1.72C19.14,9.75,18.84,11.18,17.43,11.18Z"/>
  <path d="M63.23,8.08c0-2.34-1.83-2.68-2.92-2.68-3,0-4.42,2.65-4.42,5.12,0,3.06,1.41,4.61,4.2,4.61a6.11,6.11,0,0,0,2.86-.71v-2a4.84,4.84,0,0,1-2.47.85,2,2,0,0,1-2.08-2.07C61,11.1,63.23,10.32,63.23,8.08ZM58.39,9.85c.08-2.38,1.09-2.77,1.75-2.77a1,1,0,0,1,1,1C61.1,9.1,60.05,9.73,58.39,9.85ZM35.08,11.69l1.86,1.38a4.83,4.83,0,0,1-4,2c-2.88,0-5.22-2.18-5.22-6.29,0-3.93,2.34-6.28,5.22-6.28a4.84,4.84,0,0,1,4,2L35.05,5.95A2.56,2.56,0,0,0,33,4.73c-1.47,0-2.66,1.53-2.66,4.08S31.5,12.89,33,12.89A2.55,2.55,0,0,0,35.08,11.69ZM45.22,5.75H42.68v5.59c0,1-.46,1.44-1.25,1.44s-1.23-.47-1.23-1.44V5.75H37.67V9.82a11.43,11.43,0,0,0,.17,2.55,2.53,2.53,0,0,0,2.45,1.83,4,4,0,0,0-2.15,3.31c0,1.51,1.18,2.36,3.06,2.36,2.52,0,3.72-1.62,3.92-4,.11-1.35.1-2.37.1-2.89ZM42.75,15.81c0,.85-.08,2.35-1.33,2.35A1.06,1.06,0,0,1,40.35,17a3.77,3.77,0,0,1,2.4-3.19h0C42.76,14,42.78,15,42.75,15.81Zm64.82-7.34v6.35H105V9.26c0-.65-.18-1.61-1.24-1.61-.86,0-1.37.81-1.37,1.82v5.37H99.88V5.75h2.3V7.11a2.81,2.81,0,0,1,2.63-1.71C106.57,5.4,107.58,6.43,107.58,8.48ZM51.4,5.4a3.34,3.34,0,0,0-2,.65V2.79H46.86V14.44a9.57,9.57,0,0,0,3.56.69c2.87,0,4.38-1.83,4.38-5.29C54.8,6.93,53.62,5.4,51.4,5.4Zm-.84,8.07a2.47,2.47,0,0,1-1.17-.28c0-.9,0-4.12,0-4.93a1.17,1.17,0,0,1,1.18-1.18c1.69,0,1.69,2.3,1.69,3.16C52.28,11.84,52.07,13.47,50.56,13.47Zm61.16-7.73H114V7.69h-2.27V11a4.68,4.68,0,0,0,.14,1.51,1.17,1.17,0,0,0,1.21.73A2.55,2.55,0,0,0,114,13v1.73a5,5,0,0,1-1.87.37c-1.81,0-2.52-.65-2.79-1.67a18.61,18.61,0,0,1-.17-3.48V2.79h2.55Zm-21.9.32a9.83,9.83,0,0,0-3.5-.66c-2.92,0-4.47,2-4.47,4.68a3.92,3.92,0,0,0,3.09,4.09,4,4,0,0,0-2.19,3.34c0,1.51,1.18,2.36,3.06,2.36,2.52,0,3.72-1.62,3.92-4,.11-1.35.1-2.37.1-2.89Zm-5.46,4.2c0-2.06.85-3.74,2.92-3v4.07c0,1-.46,1.44-1.24,1.44S84.37,12.33,84.37,10.26Zm3,5.55c0,.85-.08,2.35-1.33,2.35A1.06,1.06,0,0,1,85,17a3.73,3.73,0,0,1,2.4-3.19h0C87.37,14,87.39,15,87.36,15.81ZM98.43,8.08c0-2.34-1.84-2.68-2.93-2.68-3,0-4.41,2.65-4.41,5.12,0,3.06,1.41,4.61,4.2,4.61a6.12,6.12,0,0,0,2.86-.71v-2a4.85,4.85,0,0,1-2.48.85,2,2,0,0,1-2.07-2.07C96.17,11.1,98.43,10.32,98.43,8.08ZM93.58,9.85c.08-2.38,1.09-2.77,1.75-2.77a1,1,0,0,1,1,1C96.3,9.1,95.25,9.73,93.58,9.85ZM74.83,2.79l-3.75,12h2.44l.79-2.52h4.2l.79,2.52h2.44L78,2.79Zm.09,7.54,1.49-4.77,1.48,4.77ZM69.1,5.58a2.19,2.19,0,0,1,1.29.32V8.2a2.5,2.5,0,0,0-1.48-.36,1.85,1.85,0,0,0-1.69,1.88v5.11H64.69V5.75H67V7.2A2.53,2.53,0,0,1,69.1,5.58Z"/>
</svg>
